<mxfile host="app.diagrams.net" modified="2024-06-05T13:38:11.130Z" agent="Mozilla/5.0 (X11; Linux x86_64) AppleWebKit/537.36 (KHTML, like Gecko) Chrome/123.0.0.0 Safari/537.36" etag="8JtwB-eH_71CixdlidMd" version="24.4.14" type="github">
  <diagram name="PÃ¡gina-1" id="PVupAg9iIrKUVslqyDLY">
    <mxGraphModel dx="1760" dy="970" grid="1" gridSize="10" guides="1" tooltips="1" connect="1" arrows="1" fold="1" page="1" pageScale="1" pageWidth="1169" pageHeight="827" math="0" shadow="0">
      <root>
        <mxCell id="0" />
        <mxCell id="1" parent="0" />
        <mxCell id="uC9Wl7BZSaPr-iMYqyYY-1" value="" style="shape=table;startSize=0;container=1;collapsible=0;childLayout=tableLayout;fontSize=16;" vertex="1" parent="1">
          <mxGeometry x="10" y="71" width="200" height="400" as="geometry" />
        </mxCell>
        <mxCell id="uC9Wl7BZSaPr-iMYqyYY-2" value="" style="shape=tableRow;horizontal=0;startSize=0;swimlaneHead=0;swimlaneBody=0;strokeColor=inherit;top=0;left=0;bottom=0;right=0;collapsible=0;dropTarget=0;fillColor=none;points=[[0,0.5],[1,0.5]];portConstraint=eastwest;" vertex="1" parent="uC9Wl7BZSaPr-iMYqyYY-1">
          <mxGeometry width="200" height="40" as="geometry" />
        </mxCell>
        <mxCell id="uC9Wl7BZSaPr-iMYqyYY-3" value="&lt;font style=&quot;font-size: 17px;&quot;&gt;&lt;b style=&quot;font-size: 17px;&quot;&gt;contratos_basegov&lt;/b&gt;&lt;/font&gt;" style="shape=partialRectangle;html=1;whiteSpace=wrap;connectable=0;strokeColor=inherit;overflow=hidden;fillColor=none;top=0;left=0;bottom=0;right=0;pointerEvents=1;fontSize=17;" vertex="1" parent="uC9Wl7BZSaPr-iMYqyYY-2">
          <mxGeometry width="200" height="40" as="geometry">
            <mxRectangle width="200" height="40" as="alternateBounds" />
          </mxGeometry>
        </mxCell>
        <mxCell id="uC9Wl7BZSaPr-iMYqyYY-4" value="" style="shape=tableRow;horizontal=0;startSize=0;swimlaneHead=0;swimlaneBody=0;strokeColor=inherit;top=0;left=0;bottom=0;right=0;collapsible=0;dropTarget=0;fillColor=none;points=[[0,0.5],[1,0.5]];portConstraint=eastwest;" vertex="1" parent="uC9Wl7BZSaPr-iMYqyYY-1">
          <mxGeometry y="40" width="200" height="40" as="geometry" />
        </mxCell>
        <mxCell id="uC9Wl7BZSaPr-iMYqyYY-5" value="id" style="shape=partialRectangle;html=1;whiteSpace=wrap;connectable=0;strokeColor=inherit;overflow=hidden;fillColor=none;top=0;left=0;bottom=0;right=0;pointerEvents=1;fontSize=17;" vertex="1" parent="uC9Wl7BZSaPr-iMYqyYY-4">
          <mxGeometry width="200" height="40" as="geometry">
            <mxRectangle width="200" height="40" as="alternateBounds" />
          </mxGeometry>
        </mxCell>
        <mxCell id="uC9Wl7BZSaPr-iMYqyYY-6" value="" style="shape=tableRow;horizontal=0;startSize=0;swimlaneHead=0;swimlaneBody=0;strokeColor=inherit;top=0;left=0;bottom=0;right=0;collapsible=0;dropTarget=0;fillColor=none;points=[[0,0.5],[1,0.5]];portConstraint=eastwest;fontSize=19;" vertex="1" parent="uC9Wl7BZSaPr-iMYqyYY-1">
          <mxGeometry y="80" width="200" height="40" as="geometry" />
        </mxCell>
        <mxCell id="uC9Wl7BZSaPr-iMYqyYY-7" value="n_anuncio" style="shape=partialRectangle;html=1;whiteSpace=wrap;connectable=0;strokeColor=inherit;overflow=hidden;fillColor=none;top=0;left=0;bottom=0;right=0;pointerEvents=1;fontSize=17;" vertex="1" parent="uC9Wl7BZSaPr-iMYqyYY-6">
          <mxGeometry width="200" height="40" as="geometry">
            <mxRectangle width="200" height="40" as="alternateBounds" />
          </mxGeometry>
        </mxCell>
        <mxCell id="uC9Wl7BZSaPr-iMYqyYY-20" style="shape=tableRow;horizontal=0;startSize=0;swimlaneHead=0;swimlaneBody=0;strokeColor=inherit;top=0;left=0;bottom=0;right=0;collapsible=0;dropTarget=0;fillColor=none;points=[[0,0.5],[1,0.5]];portConstraint=eastwest;" vertex="1" parent="uC9Wl7BZSaPr-iMYqyYY-1">
          <mxGeometry y="120" width="200" height="40" as="geometry" />
        </mxCell>
        <mxCell id="uC9Wl7BZSaPr-iMYqyYY-21" value="anuncio_preco_base" style="shape=partialRectangle;html=1;whiteSpace=wrap;connectable=0;strokeColor=inherit;overflow=hidden;fillColor=none;top=0;left=0;bottom=0;right=0;pointerEvents=1;fontSize=17;" vertex="1" parent="uC9Wl7BZSaPr-iMYqyYY-20">
          <mxGeometry width="200" height="40" as="geometry">
            <mxRectangle width="200" height="40" as="alternateBounds" />
          </mxGeometry>
        </mxCell>
        <mxCell id="uC9Wl7BZSaPr-iMYqyYY-8" value="" style="shape=tableRow;horizontal=0;startSize=0;swimlaneHead=0;swimlaneBody=0;strokeColor=inherit;top=0;left=0;bottom=0;right=0;collapsible=0;dropTarget=0;fillColor=none;points=[[0,0.5],[1,0.5]];portConstraint=eastwest;" vertex="1" parent="uC9Wl7BZSaPr-iMYqyYY-1">
          <mxGeometry y="160" width="200" height="40" as="geometry" />
        </mxCell>
        <mxCell id="uC9Wl7BZSaPr-iMYqyYY-9" value="..." style="shape=partialRectangle;html=1;whiteSpace=wrap;connectable=0;strokeColor=inherit;overflow=hidden;fillColor=none;top=0;left=0;bottom=0;right=0;pointerEvents=1;fontSize=17;" vertex="1" parent="uC9Wl7BZSaPr-iMYqyYY-8">
          <mxGeometry width="200" height="40" as="geometry">
            <mxRectangle width="200" height="40" as="alternateBounds" />
          </mxGeometry>
        </mxCell>
        <mxCell id="uC9Wl7BZSaPr-iMYqyYY-10" value="" style="shape=tableRow;horizontal=0;startSize=0;swimlaneHead=0;swimlaneBody=0;strokeColor=inherit;top=0;left=0;bottom=0;right=0;collapsible=0;dropTarget=0;fillColor=none;points=[[0,0.5],[1,0.5]];portConstraint=eastwest;" vertex="1" parent="uC9Wl7BZSaPr-iMYqyYY-1">
          <mxGeometry y="200" width="200" height="40" as="geometry" />
        </mxCell>
        <mxCell id="uC9Wl7BZSaPr-iMYqyYY-11" value="cpv" style="shape=partialRectangle;html=1;whiteSpace=wrap;connectable=0;strokeColor=inherit;overflow=hidden;fillColor=none;top=0;left=0;bottom=0;right=0;pointerEvents=1;fontSize=17;" vertex="1" parent="uC9Wl7BZSaPr-iMYqyYY-10">
          <mxGeometry width="200" height="40" as="geometry">
            <mxRectangle width="200" height="40" as="alternateBounds" />
          </mxGeometry>
        </mxCell>
        <mxCell id="uC9Wl7BZSaPr-iMYqyYY-12" value="" style="shape=tableRow;horizontal=0;startSize=0;swimlaneHead=0;swimlaneBody=0;strokeColor=inherit;top=0;left=0;bottom=0;right=0;collapsible=0;dropTarget=0;fillColor=none;points=[[0,0.5],[1,0.5]];portConstraint=eastwest;" vertex="1" parent="uC9Wl7BZSaPr-iMYqyYY-1">
          <mxGeometry y="240" width="200" height="40" as="geometry" />
        </mxCell>
        <mxCell id="uC9Wl7BZSaPr-iMYqyYY-13" value="entidade_adjudicante" style="shape=partialRectangle;html=1;whiteSpace=wrap;connectable=0;strokeColor=inherit;overflow=hidden;fillColor=none;top=0;left=0;bottom=0;right=0;pointerEvents=1;fontSize=17;" vertex="1" parent="uC9Wl7BZSaPr-iMYqyYY-12">
          <mxGeometry width="200" height="40" as="geometry">
            <mxRectangle width="200" height="40" as="alternateBounds" />
          </mxGeometry>
        </mxCell>
        <mxCell id="uC9Wl7BZSaPr-iMYqyYY-14" value="" style="shape=tableRow;horizontal=0;startSize=0;swimlaneHead=0;swimlaneBody=0;strokeColor=inherit;top=0;left=0;bottom=0;right=0;collapsible=0;dropTarget=0;fillColor=none;points=[[0,0.5],[1,0.5]];portConstraint=eastwest;" vertex="1" parent="uC9Wl7BZSaPr-iMYqyYY-1">
          <mxGeometry y="280" width="200" height="40" as="geometry" />
        </mxCell>
        <mxCell id="uC9Wl7BZSaPr-iMYqyYY-15" value="entidades_contratadas" style="shape=partialRectangle;html=1;whiteSpace=wrap;connectable=0;strokeColor=inherit;overflow=hidden;fillColor=none;top=0;left=0;bottom=0;right=0;pointerEvents=1;fontSize=17;" vertex="1" parent="uC9Wl7BZSaPr-iMYqyYY-14">
          <mxGeometry width="200" height="40" as="geometry">
            <mxRectangle width="200" height="40" as="alternateBounds" />
          </mxGeometry>
        </mxCell>
        <mxCell id="uC9Wl7BZSaPr-iMYqyYY-16" value="" style="shape=tableRow;horizontal=0;startSize=0;swimlaneHead=0;swimlaneBody=0;strokeColor=inherit;top=0;left=0;bottom=0;right=0;collapsible=0;dropTarget=0;fillColor=none;points=[[0,0.5],[1,0.5]];portConstraint=eastwest;" vertex="1" parent="uC9Wl7BZSaPr-iMYqyYY-1">
          <mxGeometry y="320" width="200" height="40" as="geometry" />
        </mxCell>
        <mxCell id="uC9Wl7BZSaPr-iMYqyYY-17" value="entidades_concorrentes" style="shape=partialRectangle;html=1;whiteSpace=wrap;connectable=0;strokeColor=inherit;overflow=hidden;fillColor=none;top=0;left=0;bottom=0;right=0;pointerEvents=1;fontSize=17;" vertex="1" parent="uC9Wl7BZSaPr-iMYqyYY-16">
          <mxGeometry width="200" height="40" as="geometry">
            <mxRectangle width="200" height="40" as="alternateBounds" />
          </mxGeometry>
        </mxCell>
        <mxCell id="uC9Wl7BZSaPr-iMYqyYY-18" value="" style="shape=tableRow;horizontal=0;startSize=0;swimlaneHead=0;swimlaneBody=0;strokeColor=inherit;top=0;left=0;bottom=0;right=0;collapsible=0;dropTarget=0;fillColor=none;points=[[0,0.5],[1,0.5]];portConstraint=eastwest;" vertex="1" parent="uC9Wl7BZSaPr-iMYqyYY-1">
          <mxGeometry y="360" width="200" height="40" as="geometry" />
        </mxCell>
        <mxCell id="uC9Wl7BZSaPr-iMYqyYY-19" value="preco_contratual" style="shape=partialRectangle;html=1;whiteSpace=wrap;connectable=0;strokeColor=inherit;overflow=hidden;fillColor=none;top=0;left=0;bottom=0;right=0;pointerEvents=1;fontSize=17;" vertex="1" parent="uC9Wl7BZSaPr-iMYqyYY-18">
          <mxGeometry width="200" height="40" as="geometry">
            <mxRectangle width="200" height="40" as="alternateBounds" />
          </mxGeometry>
        </mxCell>
        <mxCell id="uC9Wl7BZSaPr-iMYqyYY-23" value="" style="shape=table;startSize=0;container=1;collapsible=0;childLayout=tableLayout;fontSize=20;" vertex="1" parent="1">
          <mxGeometry x="270" y="114" width="190" height="599" as="geometry" />
        </mxCell>
        <mxCell id="uC9Wl7BZSaPr-iMYqyYY-24" value="" style="shape=tableRow;horizontal=0;startSize=0;swimlaneHead=0;swimlaneBody=0;strokeColor=inherit;top=0;left=0;bottom=0;right=0;collapsible=0;dropTarget=0;fillColor=none;points=[[0,0.5],[1,0.5]];portConstraint=eastwest;" vertex="1" parent="uC9Wl7BZSaPr-iMYqyYY-23">
          <mxGeometry width="190" height="40" as="geometry" />
        </mxCell>
        <mxCell id="uC9Wl7BZSaPr-iMYqyYY-25" value="&lt;font size=&quot;1&quot; style=&quot;&quot;&gt;&lt;b style=&quot;font-size: 18px;&quot;&gt;ajustes_diretos&lt;/b&gt;&lt;/font&gt;" style="shape=partialRectangle;html=1;whiteSpace=wrap;connectable=0;strokeColor=inherit;overflow=hidden;fillColor=none;top=0;left=0;bottom=0;right=0;pointerEvents=1;" vertex="1" parent="uC9Wl7BZSaPr-iMYqyYY-24">
          <mxGeometry width="190" height="40" as="geometry">
            <mxRectangle width="190" height="40" as="alternateBounds" />
          </mxGeometry>
        </mxCell>
        <mxCell id="uC9Wl7BZSaPr-iMYqyYY-26" value="" style="shape=tableRow;horizontal=0;startSize=0;swimlaneHead=0;swimlaneBody=0;strokeColor=inherit;top=0;left=0;bottom=0;right=0;collapsible=0;dropTarget=0;fillColor=none;points=[[0,0.5],[1,0.5]];portConstraint=eastwest;" vertex="1" parent="uC9Wl7BZSaPr-iMYqyYY-23">
          <mxGeometry y="40" width="190" height="39" as="geometry" />
        </mxCell>
        <mxCell id="uC9Wl7BZSaPr-iMYqyYY-27" value="id" style="shape=partialRectangle;html=1;whiteSpace=wrap;connectable=0;strokeColor=inherit;overflow=hidden;fillColor=none;top=0;left=0;bottom=0;right=0;pointerEvents=1;fontSize=17;" vertex="1" parent="uC9Wl7BZSaPr-iMYqyYY-26">
          <mxGeometry width="190" height="39" as="geometry">
            <mxRectangle width="190" height="39" as="alternateBounds" />
          </mxGeometry>
        </mxCell>
        <mxCell id="uC9Wl7BZSaPr-iMYqyYY-28" value="" style="shape=tableRow;horizontal=0;startSize=0;swimlaneHead=0;swimlaneBody=0;strokeColor=inherit;top=0;left=0;bottom=0;right=0;collapsible=0;dropTarget=0;fillColor=none;points=[[0,0.5],[1,0.5]];portConstraint=eastwest;fontSize=19;" vertex="1" parent="uC9Wl7BZSaPr-iMYqyYY-23">
          <mxGeometry y="79" width="190" height="40" as="geometry" />
        </mxCell>
        <mxCell id="uC9Wl7BZSaPr-iMYqyYY-29" value="data_publicacao" style="shape=partialRectangle;html=1;whiteSpace=wrap;connectable=0;strokeColor=inherit;overflow=hidden;fillColor=none;top=0;left=0;bottom=0;right=0;pointerEvents=1;fontSize=17;" vertex="1" parent="uC9Wl7BZSaPr-iMYqyYY-28">
          <mxGeometry width="190" height="40" as="geometry">
            <mxRectangle width="190" height="40" as="alternateBounds" />
          </mxGeometry>
        </mxCell>
        <mxCell id="uC9Wl7BZSaPr-iMYqyYY-30" style="shape=tableRow;horizontal=0;startSize=0;swimlaneHead=0;swimlaneBody=0;strokeColor=inherit;top=0;left=0;bottom=0;right=0;collapsible=0;dropTarget=0;fillColor=none;points=[[0,0.5],[1,0.5]];portConstraint=eastwest;" vertex="1" parent="uC9Wl7BZSaPr-iMYqyYY-23">
          <mxGeometry y="119" width="190" height="40" as="geometry" />
        </mxCell>
        <mxCell id="uC9Wl7BZSaPr-iMYqyYY-31" value="contractTypes" style="shape=partialRectangle;html=1;whiteSpace=wrap;connectable=0;strokeColor=inherit;overflow=hidden;fillColor=none;top=0;left=0;bottom=0;right=0;pointerEvents=1;fontSize=17;" vertex="1" parent="uC9Wl7BZSaPr-iMYqyYY-30">
          <mxGeometry width="190" height="40" as="geometry">
            <mxRectangle width="190" height="40" as="alternateBounds" />
          </mxGeometry>
        </mxCell>
        <mxCell id="uC9Wl7BZSaPr-iMYqyYY-32" value="" style="shape=tableRow;horizontal=0;startSize=0;swimlaneHead=0;swimlaneBody=0;strokeColor=inherit;top=0;left=0;bottom=0;right=0;collapsible=0;dropTarget=0;fillColor=none;points=[[0,0.5],[1,0.5]];portConstraint=eastwest;" vertex="1" parent="uC9Wl7BZSaPr-iMYqyYY-23">
          <mxGeometry y="159" width="190" height="40" as="geometry" />
        </mxCell>
        <mxCell id="uC9Wl7BZSaPr-iMYqyYY-33" value="..." style="shape=partialRectangle;html=1;whiteSpace=wrap;connectable=0;strokeColor=inherit;overflow=hidden;fillColor=none;top=0;left=0;bottom=0;right=0;pointerEvents=1;fontSize=17;" vertex="1" parent="uC9Wl7BZSaPr-iMYqyYY-32">
          <mxGeometry width="190" height="40" as="geometry">
            <mxRectangle width="190" height="40" as="alternateBounds" />
          </mxGeometry>
        </mxCell>
        <mxCell id="uC9Wl7BZSaPr-iMYqyYY-34" value="" style="shape=tableRow;horizontal=0;startSize=0;swimlaneHead=0;swimlaneBody=0;strokeColor=inherit;top=0;left=0;bottom=0;right=0;collapsible=0;dropTarget=0;fillColor=none;points=[[0,0.5],[1,0.5]];portConstraint=eastwest;" vertex="1" parent="uC9Wl7BZSaPr-iMYqyYY-23">
          <mxGeometry y="199" width="190" height="40" as="geometry" />
        </mxCell>
        <mxCell id="uC9Wl7BZSaPr-iMYqyYY-35" value="cpv" style="shape=partialRectangle;html=1;whiteSpace=wrap;connectable=0;strokeColor=inherit;overflow=hidden;fillColor=none;top=0;left=0;bottom=0;right=0;pointerEvents=1;fontSize=17;" vertex="1" parent="uC9Wl7BZSaPr-iMYqyYY-34">
          <mxGeometry width="190" height="40" as="geometry">
            <mxRectangle width="190" height="40" as="alternateBounds" />
          </mxGeometry>
        </mxCell>
        <mxCell id="uC9Wl7BZSaPr-iMYqyYY-36" value="" style="shape=tableRow;horizontal=0;startSize=0;swimlaneHead=0;swimlaneBody=0;strokeColor=inherit;top=0;left=0;bottom=0;right=0;collapsible=0;dropTarget=0;fillColor=none;points=[[0,0.5],[1,0.5]];portConstraint=eastwest;" vertex="1" parent="uC9Wl7BZSaPr-iMYqyYY-23">
          <mxGeometry y="239" width="190" height="40" as="geometry" />
        </mxCell>
        <mxCell id="uC9Wl7BZSaPr-iMYqyYY-37" value="entidade_adjudicante" style="shape=partialRectangle;html=1;whiteSpace=wrap;connectable=0;strokeColor=inherit;overflow=hidden;fillColor=none;top=0;left=0;bottom=0;right=0;pointerEvents=1;fontSize=17;" vertex="1" parent="uC9Wl7BZSaPr-iMYqyYY-36">
          <mxGeometry width="190" height="40" as="geometry">
            <mxRectangle width="190" height="40" as="alternateBounds" />
          </mxGeometry>
        </mxCell>
        <mxCell id="uC9Wl7BZSaPr-iMYqyYY-38" value="" style="shape=tableRow;horizontal=0;startSize=0;swimlaneHead=0;swimlaneBody=0;strokeColor=inherit;top=0;left=0;bottom=0;right=0;collapsible=0;dropTarget=0;fillColor=none;points=[[0,0.5],[1,0.5]];portConstraint=eastwest;" vertex="1" parent="uC9Wl7BZSaPr-iMYqyYY-23">
          <mxGeometry y="279" width="190" height="40" as="geometry" />
        </mxCell>
        <mxCell id="uC9Wl7BZSaPr-iMYqyYY-39" value="entidades_contratadas" style="shape=partialRectangle;html=1;whiteSpace=wrap;connectable=0;strokeColor=inherit;overflow=hidden;fillColor=none;top=0;left=0;bottom=0;right=0;pointerEvents=1;fontSize=17;" vertex="1" parent="uC9Wl7BZSaPr-iMYqyYY-38">
          <mxGeometry width="190" height="40" as="geometry">
            <mxRectangle width="190" height="40" as="alternateBounds" />
          </mxGeometry>
        </mxCell>
        <mxCell id="uC9Wl7BZSaPr-iMYqyYY-40" value="" style="shape=tableRow;horizontal=0;startSize=0;swimlaneHead=0;swimlaneBody=0;strokeColor=inherit;top=0;left=0;bottom=0;right=0;collapsible=0;dropTarget=0;fillColor=none;points=[[0,0.5],[1,0.5]];portConstraint=eastwest;" vertex="1" parent="uC9Wl7BZSaPr-iMYqyYY-23">
          <mxGeometry y="319" width="190" height="40" as="geometry" />
        </mxCell>
        <mxCell id="uC9Wl7BZSaPr-iMYqyYY-41" value="preco_contratual" style="shape=partialRectangle;html=1;whiteSpace=wrap;connectable=0;strokeColor=inherit;overflow=hidden;fillColor=none;top=0;left=0;bottom=0;right=0;pointerEvents=1;fontSize=17;" vertex="1" parent="uC9Wl7BZSaPr-iMYqyYY-40">
          <mxGeometry width="190" height="40" as="geometry">
            <mxRectangle width="190" height="40" as="alternateBounds" />
          </mxGeometry>
        </mxCell>
        <mxCell id="uC9Wl7BZSaPr-iMYqyYY-42" value="" style="shape=tableRow;horizontal=0;startSize=0;swimlaneHead=0;swimlaneBody=0;strokeColor=inherit;top=0;left=0;bottom=0;right=0;collapsible=0;dropTarget=0;fillColor=none;points=[[0,0.5],[1,0.5]];portConstraint=eastwest;" vertex="1" parent="uC9Wl7BZSaPr-iMYqyYY-23">
          <mxGeometry y="359" width="190" height="40" as="geometry" />
        </mxCell>
        <mxCell id="uC9Wl7BZSaPr-iMYqyYY-43" value="&lt;i style=&quot;font-size: 17px;&quot;&gt;&lt;font style=&quot;font-size: 17px;&quot; color=&quot;#ff3108&quot;&gt;criterio&lt;/font&gt;&lt;/i&gt;" style="shape=partialRectangle;html=1;whiteSpace=wrap;connectable=0;strokeColor=inherit;overflow=hidden;fillColor=none;top=0;left=0;bottom=0;right=0;pointerEvents=1;fontSize=17;textShadow=1;labelBorderColor=none;labelBackgroundColor=none;" vertex="1" parent="uC9Wl7BZSaPr-iMYqyYY-42">
          <mxGeometry width="190" height="40" as="geometry">
            <mxRectangle width="190" height="40" as="alternateBounds" />
          </mxGeometry>
        </mxCell>
        <mxCell id="uC9Wl7BZSaPr-iMYqyYY-44" style="shape=tableRow;horizontal=0;startSize=0;swimlaneHead=0;swimlaneBody=0;strokeColor=inherit;top=0;left=0;bottom=0;right=0;collapsible=0;dropTarget=0;fillColor=none;points=[[0,0.5],[1,0.5]];portConstraint=eastwest;" vertex="1" parent="uC9Wl7BZSaPr-iMYqyYY-23">
          <mxGeometry y="399" width="190" height="40" as="geometry" />
        </mxCell>
        <mxCell id="uC9Wl7BZSaPr-iMYqyYY-45" value="&lt;font style=&quot;font-size: 17px;&quot; color=&quot;#ff3108&quot;&gt;&lt;i style=&quot;font-size: 17px;&quot;&gt;tipo_contrato&lt;/i&gt;&lt;/font&gt;" style="shape=partialRectangle;html=1;whiteSpace=wrap;connectable=0;strokeColor=inherit;overflow=hidden;fillColor=none;top=0;left=0;bottom=0;right=0;pointerEvents=1;fontSize=17;textShadow=1;labelBorderColor=none;labelBackgroundColor=none;" vertex="1" parent="uC9Wl7BZSaPr-iMYqyYY-44">
          <mxGeometry width="190" height="40" as="geometry">
            <mxRectangle width="190" height="40" as="alternateBounds" />
          </mxGeometry>
        </mxCell>
        <mxCell id="uC9Wl7BZSaPr-iMYqyYY-46" style="shape=tableRow;horizontal=0;startSize=0;swimlaneHead=0;swimlaneBody=0;strokeColor=inherit;top=0;left=0;bottom=0;right=0;collapsible=0;dropTarget=0;fillColor=none;points=[[0,0.5],[1,0.5]];portConstraint=eastwest;" vertex="1" parent="uC9Wl7BZSaPr-iMYqyYY-23">
          <mxGeometry y="439" width="190" height="40" as="geometry" />
        </mxCell>
        <mxCell id="uC9Wl7BZSaPr-iMYqyYY-47" value="&lt;font style=&quot;font-size: 17px;&quot; color=&quot;#ff3108&quot;&gt;&lt;i style=&quot;font-size: 17px;&quot;&gt;adjudicante&lt;/i&gt;&lt;/font&gt;" style="shape=partialRectangle;html=1;whiteSpace=wrap;connectable=0;strokeColor=inherit;overflow=hidden;fillColor=none;top=0;left=0;bottom=0;right=0;pointerEvents=1;fontSize=17;textShadow=1;labelBorderColor=none;labelBackgroundColor=none;" vertex="1" parent="uC9Wl7BZSaPr-iMYqyYY-46">
          <mxGeometry width="190" height="40" as="geometry">
            <mxRectangle width="190" height="40" as="alternateBounds" />
          </mxGeometry>
        </mxCell>
        <mxCell id="uC9Wl7BZSaPr-iMYqyYY-48" style="shape=tableRow;horizontal=0;startSize=0;swimlaneHead=0;swimlaneBody=0;strokeColor=inherit;top=0;left=0;bottom=0;right=0;collapsible=0;dropTarget=0;fillColor=none;points=[[0,0.5],[1,0.5]];portConstraint=eastwest;" vertex="1" parent="uC9Wl7BZSaPr-iMYqyYY-23">
          <mxGeometry y="479" width="190" height="40" as="geometry" />
        </mxCell>
        <mxCell id="uC9Wl7BZSaPr-iMYqyYY-49" value="&lt;font style=&quot;font-size: 17px;&quot; color=&quot;#ff3108&quot;&gt;&lt;i style=&quot;font-size: 17px;&quot;&gt;nif1&lt;/i&gt;&lt;/font&gt;" style="shape=partialRectangle;html=1;whiteSpace=wrap;connectable=0;strokeColor=inherit;overflow=hidden;fillColor=none;top=0;left=0;bottom=0;right=0;pointerEvents=1;fontSize=17;textShadow=1;labelBorderColor=none;labelBackgroundColor=none;" vertex="1" parent="uC9Wl7BZSaPr-iMYqyYY-48">
          <mxGeometry width="190" height="40" as="geometry">
            <mxRectangle width="190" height="40" as="alternateBounds" />
          </mxGeometry>
        </mxCell>
        <mxCell id="uC9Wl7BZSaPr-iMYqyYY-50" style="shape=tableRow;horizontal=0;startSize=0;swimlaneHead=0;swimlaneBody=0;strokeColor=inherit;top=0;left=0;bottom=0;right=0;collapsible=0;dropTarget=0;fillColor=none;points=[[0,0.5],[1,0.5]];portConstraint=eastwest;" vertex="1" parent="uC9Wl7BZSaPr-iMYqyYY-23">
          <mxGeometry y="519" width="190" height="40" as="geometry" />
        </mxCell>
        <mxCell id="uC9Wl7BZSaPr-iMYqyYY-51" value="&lt;font style=&quot;font-size: 17px;&quot; color=&quot;#ff3108&quot;&gt;&lt;i style=&quot;font-size: 17px;&quot;&gt;adjudicataria&lt;/i&gt;&lt;/font&gt;" style="shape=partialRectangle;html=1;whiteSpace=wrap;connectable=0;strokeColor=inherit;overflow=hidden;fillColor=none;top=0;left=0;bottom=0;right=0;pointerEvents=1;fontSize=17;textShadow=1;labelBorderColor=none;labelBackgroundColor=none;" vertex="1" parent="uC9Wl7BZSaPr-iMYqyYY-50">
          <mxGeometry width="190" height="40" as="geometry">
            <mxRectangle width="190" height="40" as="alternateBounds" />
          </mxGeometry>
        </mxCell>
        <mxCell id="uC9Wl7BZSaPr-iMYqyYY-52" style="shape=tableRow;horizontal=0;startSize=0;swimlaneHead=0;swimlaneBody=0;strokeColor=inherit;top=0;left=0;bottom=0;right=0;collapsible=0;dropTarget=0;fillColor=none;points=[[0,0.5],[1,0.5]];portConstraint=eastwest;" vertex="1" parent="uC9Wl7BZSaPr-iMYqyYY-23">
          <mxGeometry y="559" width="190" height="40" as="geometry" />
        </mxCell>
        <mxCell id="uC9Wl7BZSaPr-iMYqyYY-53" value="&lt;font style=&quot;font-size: 17px;&quot; color=&quot;#ff3108&quot;&gt;&lt;i style=&quot;font-size: 17px;&quot;&gt;nif2&lt;/i&gt;&lt;/font&gt;" style="shape=partialRectangle;html=1;whiteSpace=wrap;connectable=0;strokeColor=inherit;overflow=hidden;fillColor=none;top=0;left=0;bottom=0;right=0;pointerEvents=1;fontSize=17;textShadow=1;labelBorderColor=none;labelBackgroundColor=none;" vertex="1" parent="uC9Wl7BZSaPr-iMYqyYY-52">
          <mxGeometry width="190" height="40" as="geometry">
            <mxRectangle width="190" height="40" as="alternateBounds" />
          </mxGeometry>
        </mxCell>
        <mxCell id="uC9Wl7BZSaPr-iMYqyYY-55" value="" style="shape=table;startSize=0;container=1;collapsible=0;childLayout=tableLayout;fontSize=17;" vertex="1" parent="1">
          <mxGeometry x="510" y="114" width="239.99999999999955" height="640" as="geometry" />
        </mxCell>
        <mxCell id="uC9Wl7BZSaPr-iMYqyYY-56" value="" style="shape=tableRow;horizontal=0;startSize=0;swimlaneHead=0;swimlaneBody=0;strokeColor=inherit;top=0;left=0;bottom=0;right=0;collapsible=0;dropTarget=0;fillColor=none;points=[[0,0.5],[1,0.5]];portConstraint=eastwest;" vertex="1" parent="uC9Wl7BZSaPr-iMYqyYY-55">
          <mxGeometry width="239.99999999999955" height="40" as="geometry" />
        </mxCell>
        <mxCell id="uC9Wl7BZSaPr-iMYqyYY-57" value="&lt;font size=&quot;1&quot; style=&quot;&quot;&gt;&lt;b style=&quot;font-size: 18px;&quot;&gt;concursos_publicos&lt;/b&gt;&lt;/font&gt;" style="shape=partialRectangle;html=1;whiteSpace=wrap;connectable=0;strokeColor=inherit;overflow=hidden;fillColor=none;top=0;left=0;bottom=0;right=0;pointerEvents=1;" vertex="1" parent="uC9Wl7BZSaPr-iMYqyYY-56">
          <mxGeometry width="240" height="40" as="geometry">
            <mxRectangle width="240" height="40" as="alternateBounds" />
          </mxGeometry>
        </mxCell>
        <mxCell id="uC9Wl7BZSaPr-iMYqyYY-58" value="" style="shape=tableRow;horizontal=0;startSize=0;swimlaneHead=0;swimlaneBody=0;strokeColor=inherit;top=0;left=0;bottom=0;right=0;collapsible=0;dropTarget=0;fillColor=none;points=[[0,0.5],[1,0.5]];portConstraint=eastwest;" vertex="1" parent="uC9Wl7BZSaPr-iMYqyYY-55">
          <mxGeometry y="40" width="239.99999999999955" height="40" as="geometry" />
        </mxCell>
        <mxCell id="uC9Wl7BZSaPr-iMYqyYY-59" value="id" style="shape=partialRectangle;html=1;whiteSpace=wrap;connectable=0;strokeColor=inherit;overflow=hidden;fillColor=none;top=0;left=0;bottom=0;right=0;pointerEvents=1;fontSize=17;" vertex="1" parent="uC9Wl7BZSaPr-iMYqyYY-58">
          <mxGeometry width="240" height="40" as="geometry">
            <mxRectangle width="240" height="40" as="alternateBounds" />
          </mxGeometry>
        </mxCell>
        <mxCell id="uC9Wl7BZSaPr-iMYqyYY-60" value="" style="shape=tableRow;horizontal=0;startSize=0;swimlaneHead=0;swimlaneBody=0;strokeColor=inherit;top=0;left=0;bottom=0;right=0;collapsible=0;dropTarget=0;fillColor=none;points=[[0,0.5],[1,0.5]];portConstraint=eastwest;fontSize=17;" vertex="1" parent="uC9Wl7BZSaPr-iMYqyYY-55">
          <mxGeometry y="80" width="239.99999999999955" height="40" as="geometry" />
        </mxCell>
        <mxCell id="uC9Wl7BZSaPr-iMYqyYY-61" value="data_publicacao" style="shape=partialRectangle;html=1;whiteSpace=wrap;connectable=0;strokeColor=inherit;overflow=hidden;fillColor=none;top=0;left=0;bottom=0;right=0;pointerEvents=1;fontSize=19;" vertex="1" parent="uC9Wl7BZSaPr-iMYqyYY-60">
          <mxGeometry width="240" height="40" as="geometry">
            <mxRectangle width="240" height="40" as="alternateBounds" />
          </mxGeometry>
        </mxCell>
        <mxCell id="uC9Wl7BZSaPr-iMYqyYY-62" style="shape=tableRow;horizontal=0;startSize=0;swimlaneHead=0;swimlaneBody=0;strokeColor=inherit;top=0;left=0;bottom=0;right=0;collapsible=0;dropTarget=0;fillColor=none;points=[[0,0.5],[1,0.5]];portConstraint=eastwest;" vertex="1" parent="uC9Wl7BZSaPr-iMYqyYY-55">
          <mxGeometry y="120" width="239.99999999999955" height="40" as="geometry" />
        </mxCell>
        <mxCell id="uC9Wl7BZSaPr-iMYqyYY-63" value="contractTypes" style="shape=partialRectangle;html=1;whiteSpace=wrap;connectable=0;strokeColor=inherit;overflow=hidden;fillColor=none;top=0;left=0;bottom=0;right=0;pointerEvents=1;fontSize=17;" vertex="1" parent="uC9Wl7BZSaPr-iMYqyYY-62">
          <mxGeometry width="240" height="40" as="geometry">
            <mxRectangle width="240" height="40" as="alternateBounds" />
          </mxGeometry>
        </mxCell>
        <mxCell id="uC9Wl7BZSaPr-iMYqyYY-64" value="" style="shape=tableRow;horizontal=0;startSize=0;swimlaneHead=0;swimlaneBody=0;strokeColor=inherit;top=0;left=0;bottom=0;right=0;collapsible=0;dropTarget=0;fillColor=none;points=[[0,0.5],[1,0.5]];portConstraint=eastwest;" vertex="1" parent="uC9Wl7BZSaPr-iMYqyYY-55">
          <mxGeometry y="160" width="239.99999999999955" height="40" as="geometry" />
        </mxCell>
        <mxCell id="uC9Wl7BZSaPr-iMYqyYY-65" value="..." style="shape=partialRectangle;html=1;whiteSpace=wrap;connectable=0;strokeColor=inherit;overflow=hidden;fillColor=none;top=0;left=0;bottom=0;right=0;pointerEvents=1;fontSize=17;" vertex="1" parent="uC9Wl7BZSaPr-iMYqyYY-64">
          <mxGeometry width="240" height="40" as="geometry">
            <mxRectangle width="240" height="40" as="alternateBounds" />
          </mxGeometry>
        </mxCell>
        <mxCell id="uC9Wl7BZSaPr-iMYqyYY-66" value="" style="shape=tableRow;horizontal=0;startSize=0;swimlaneHead=0;swimlaneBody=0;strokeColor=inherit;top=0;left=0;bottom=0;right=0;collapsible=0;dropTarget=0;fillColor=none;points=[[0,0.5],[1,0.5]];portConstraint=eastwest;" vertex="1" parent="uC9Wl7BZSaPr-iMYqyYY-55">
          <mxGeometry y="200" width="239.99999999999955" height="40" as="geometry" />
        </mxCell>
        <mxCell id="uC9Wl7BZSaPr-iMYqyYY-67" value="cpv" style="shape=partialRectangle;html=1;whiteSpace=wrap;connectable=0;strokeColor=inherit;overflow=hidden;fillColor=none;top=0;left=0;bottom=0;right=0;pointerEvents=1;fontSize=17;" vertex="1" parent="uC9Wl7BZSaPr-iMYqyYY-66">
          <mxGeometry width="240" height="40" as="geometry">
            <mxRectangle width="240" height="40" as="alternateBounds" />
          </mxGeometry>
        </mxCell>
        <mxCell id="uC9Wl7BZSaPr-iMYqyYY-86" value="" style="shape=tableRow;horizontal=0;startSize=0;swimlaneHead=0;swimlaneBody=0;strokeColor=inherit;top=0;left=0;bottom=0;right=0;collapsible=0;dropTarget=0;fillColor=none;points=[[0,0.5],[1,0.5]];portConstraint=eastwest;" vertex="1" parent="uC9Wl7BZSaPr-iMYqyYY-55">
          <mxGeometry y="240" width="239.99999999999955" height="40" as="geometry" />
        </mxCell>
        <mxCell id="uC9Wl7BZSaPr-iMYqyYY-87" value="entidade_adjudicante" style="shape=partialRectangle;html=1;whiteSpace=wrap;connectable=0;strokeColor=inherit;overflow=hidden;fillColor=none;top=0;left=0;bottom=0;right=0;pointerEvents=1;fontSize=17;" vertex="1" parent="uC9Wl7BZSaPr-iMYqyYY-86">
          <mxGeometry width="240" height="40" as="geometry">
            <mxRectangle width="240" height="40" as="alternateBounds" />
          </mxGeometry>
        </mxCell>
        <mxCell id="uC9Wl7BZSaPr-iMYqyYY-68" value="" style="shape=tableRow;horizontal=0;startSize=0;swimlaneHead=0;swimlaneBody=0;strokeColor=inherit;top=0;left=0;bottom=0;right=0;collapsible=0;dropTarget=0;fillColor=none;points=[[0,0.5],[1,0.5]];portConstraint=eastwest;" vertex="1" parent="uC9Wl7BZSaPr-iMYqyYY-55">
          <mxGeometry y="280" width="239.99999999999955" height="40" as="geometry" />
        </mxCell>
        <mxCell id="uC9Wl7BZSaPr-iMYqyYY-69" value="entidade_adjudicante" style="shape=partialRectangle;html=1;whiteSpace=wrap;connectable=0;strokeColor=inherit;overflow=hidden;fillColor=none;top=0;left=0;bottom=0;right=0;pointerEvents=1;fontSize=17;" vertex="1" parent="uC9Wl7BZSaPr-iMYqyYY-68">
          <mxGeometry width="240" height="40" as="geometry">
            <mxRectangle width="240" height="40" as="alternateBounds" />
          </mxGeometry>
        </mxCell>
        <mxCell id="uC9Wl7BZSaPr-iMYqyYY-70" value="" style="shape=tableRow;horizontal=0;startSize=0;swimlaneHead=0;swimlaneBody=0;strokeColor=inherit;top=0;left=0;bottom=0;right=0;collapsible=0;dropTarget=0;fillColor=none;points=[[0,0.5],[1,0.5]];portConstraint=eastwest;" vertex="1" parent="uC9Wl7BZSaPr-iMYqyYY-55">
          <mxGeometry y="320" width="239.99999999999955" height="40" as="geometry" />
        </mxCell>
        <mxCell id="uC9Wl7BZSaPr-iMYqyYY-71" value="entidades_contratadas" style="shape=partialRectangle;html=1;whiteSpace=wrap;connectable=0;strokeColor=inherit;overflow=hidden;fillColor=none;top=0;left=0;bottom=0;right=0;pointerEvents=1;fontSize=17;" vertex="1" parent="uC9Wl7BZSaPr-iMYqyYY-70">
          <mxGeometry width="240" height="40" as="geometry">
            <mxRectangle width="240" height="40" as="alternateBounds" />
          </mxGeometry>
        </mxCell>
        <mxCell id="uC9Wl7BZSaPr-iMYqyYY-72" value="" style="shape=tableRow;horizontal=0;startSize=0;swimlaneHead=0;swimlaneBody=0;strokeColor=inherit;top=0;left=0;bottom=0;right=0;collapsible=0;dropTarget=0;fillColor=none;points=[[0,0.5],[1,0.5]];portConstraint=eastwest;" vertex="1" parent="uC9Wl7BZSaPr-iMYqyYY-55">
          <mxGeometry y="360" width="239.99999999999955" height="40" as="geometry" />
        </mxCell>
        <mxCell id="uC9Wl7BZSaPr-iMYqyYY-73" value="preco_contratual" style="shape=partialRectangle;html=1;whiteSpace=wrap;connectable=0;strokeColor=inherit;overflow=hidden;fillColor=none;top=0;left=0;bottom=0;right=0;pointerEvents=1;fontSize=17;" vertex="1" parent="uC9Wl7BZSaPr-iMYqyYY-72">
          <mxGeometry width="240" height="40" as="geometry">
            <mxRectangle width="240" height="40" as="alternateBounds" />
          </mxGeometry>
        </mxCell>
        <mxCell id="uC9Wl7BZSaPr-iMYqyYY-74" value="" style="shape=tableRow;horizontal=0;startSize=0;swimlaneHead=0;swimlaneBody=0;strokeColor=inherit;top=0;left=0;bottom=0;right=0;collapsible=0;dropTarget=0;fillColor=none;points=[[0,0.5],[1,0.5]];portConstraint=eastwest;" vertex="1" parent="uC9Wl7BZSaPr-iMYqyYY-55">
          <mxGeometry y="400" width="239.99999999999955" height="40" as="geometry" />
        </mxCell>
        <mxCell id="uC9Wl7BZSaPr-iMYqyYY-75" value="&lt;i style=&quot;font-size: 17px;&quot;&gt;&lt;font color=&quot;#ff3108&quot; style=&quot;font-size: 17px;&quot;&gt;nr_entidadesconcorrentes&lt;/font&gt;&lt;/i&gt;" style="shape=partialRectangle;html=1;whiteSpace=wrap;connectable=0;strokeColor=inherit;overflow=hidden;fillColor=none;top=0;left=0;bottom=0;right=0;pointerEvents=1;fontSize=17;textShadow=1;labelBorderColor=none;labelBackgroundColor=none;" vertex="1" parent="uC9Wl7BZSaPr-iMYqyYY-74">
          <mxGeometry width="240" height="40" as="geometry">
            <mxRectangle width="240" height="40" as="alternateBounds" />
          </mxGeometry>
        </mxCell>
        <mxCell id="uC9Wl7BZSaPr-iMYqyYY-76" style="shape=tableRow;horizontal=0;startSize=0;swimlaneHead=0;swimlaneBody=0;strokeColor=inherit;top=0;left=0;bottom=0;right=0;collapsible=0;dropTarget=0;fillColor=none;points=[[0,0.5],[1,0.5]];portConstraint=eastwest;" vertex="1" parent="uC9Wl7BZSaPr-iMYqyYY-55">
          <mxGeometry y="440" width="239.99999999999955" height="40" as="geometry" />
        </mxCell>
        <mxCell id="uC9Wl7BZSaPr-iMYqyYY-77" value="&lt;font color=&quot;#ff3108&quot; style=&quot;font-size: 17px;&quot;&gt;&lt;i style=&quot;font-size: 17px;&quot;&gt;tipo_contrato&lt;/i&gt;&lt;/font&gt;" style="shape=partialRectangle;html=1;whiteSpace=wrap;connectable=0;strokeColor=inherit;overflow=hidden;fillColor=none;top=0;left=0;bottom=0;right=0;pointerEvents=1;fontSize=17;textShadow=1;labelBorderColor=none;labelBackgroundColor=none;" vertex="1" parent="uC9Wl7BZSaPr-iMYqyYY-76">
          <mxGeometry width="240" height="40" as="geometry">
            <mxRectangle width="240" height="40" as="alternateBounds" />
          </mxGeometry>
        </mxCell>
        <mxCell id="uC9Wl7BZSaPr-iMYqyYY-78" style="shape=tableRow;horizontal=0;startSize=0;swimlaneHead=0;swimlaneBody=0;strokeColor=inherit;top=0;left=0;bottom=0;right=0;collapsible=0;dropTarget=0;fillColor=none;points=[[0,0.5],[1,0.5]];portConstraint=eastwest;" vertex="1" parent="uC9Wl7BZSaPr-iMYqyYY-55">
          <mxGeometry y="480" width="239.99999999999955" height="40" as="geometry" />
        </mxCell>
        <mxCell id="uC9Wl7BZSaPr-iMYqyYY-79" value="&lt;font color=&quot;#ff3108&quot; style=&quot;font-size: 17px;&quot;&gt;&lt;i style=&quot;font-size: 17px;&quot;&gt;adjudicante&lt;/i&gt;&lt;/font&gt;" style="shape=partialRectangle;html=1;whiteSpace=wrap;connectable=0;strokeColor=inherit;overflow=hidden;fillColor=none;top=0;left=0;bottom=0;right=0;pointerEvents=1;fontSize=17;textShadow=1;labelBorderColor=none;labelBackgroundColor=none;" vertex="1" parent="uC9Wl7BZSaPr-iMYqyYY-78">
          <mxGeometry width="240" height="40" as="geometry">
            <mxRectangle width="240" height="40" as="alternateBounds" />
          </mxGeometry>
        </mxCell>
        <mxCell id="uC9Wl7BZSaPr-iMYqyYY-80" style="shape=tableRow;horizontal=0;startSize=0;swimlaneHead=0;swimlaneBody=0;strokeColor=inherit;top=0;left=0;bottom=0;right=0;collapsible=0;dropTarget=0;fillColor=none;points=[[0,0.5],[1,0.5]];portConstraint=eastwest;" vertex="1" parent="uC9Wl7BZSaPr-iMYqyYY-55">
          <mxGeometry y="520" width="239.99999999999955" height="40" as="geometry" />
        </mxCell>
        <mxCell id="uC9Wl7BZSaPr-iMYqyYY-81" value="&lt;font color=&quot;#ff3108&quot; style=&quot;font-size: 17px;&quot;&gt;&lt;i style=&quot;font-size: 17px;&quot;&gt;nif1&lt;/i&gt;&lt;/font&gt;" style="shape=partialRectangle;html=1;whiteSpace=wrap;connectable=0;strokeColor=inherit;overflow=hidden;fillColor=none;top=0;left=0;bottom=0;right=0;pointerEvents=1;fontSize=17;textShadow=1;labelBorderColor=none;labelBackgroundColor=none;" vertex="1" parent="uC9Wl7BZSaPr-iMYqyYY-80">
          <mxGeometry width="240" height="40" as="geometry">
            <mxRectangle width="240" height="40" as="alternateBounds" />
          </mxGeometry>
        </mxCell>
        <mxCell id="uC9Wl7BZSaPr-iMYqyYY-82" style="shape=tableRow;horizontal=0;startSize=0;swimlaneHead=0;swimlaneBody=0;strokeColor=inherit;top=0;left=0;bottom=0;right=0;collapsible=0;dropTarget=0;fillColor=none;points=[[0,0.5],[1,0.5]];portConstraint=eastwest;fontSize=17;" vertex="1" parent="uC9Wl7BZSaPr-iMYqyYY-55">
          <mxGeometry y="560" width="239.99999999999955" height="40" as="geometry" />
        </mxCell>
        <mxCell id="uC9Wl7BZSaPr-iMYqyYY-83" value="&lt;font color=&quot;#ff3108&quot; style=&quot;font-size: 17px;&quot;&gt;&lt;i style=&quot;font-size: 17px;&quot;&gt;adjudicataria&lt;/i&gt;&lt;/font&gt;" style="shape=partialRectangle;html=1;whiteSpace=wrap;connectable=0;strokeColor=inherit;overflow=hidden;fillColor=none;top=0;left=0;bottom=0;right=0;pointerEvents=1;fontSize=17;textShadow=1;labelBorderColor=none;labelBackgroundColor=none;" vertex="1" parent="uC9Wl7BZSaPr-iMYqyYY-82">
          <mxGeometry width="240" height="40" as="geometry">
            <mxRectangle width="240" height="40" as="alternateBounds" />
          </mxGeometry>
        </mxCell>
        <mxCell id="uC9Wl7BZSaPr-iMYqyYY-84" style="shape=tableRow;horizontal=0;startSize=0;swimlaneHead=0;swimlaneBody=0;strokeColor=inherit;top=0;left=0;bottom=0;right=0;collapsible=0;dropTarget=0;fillColor=none;points=[[0,0.5],[1,0.5]];portConstraint=eastwest;" vertex="1" parent="uC9Wl7BZSaPr-iMYqyYY-55">
          <mxGeometry y="600" width="239.99999999999955" height="40" as="geometry" />
        </mxCell>
        <mxCell id="uC9Wl7BZSaPr-iMYqyYY-85" value="&lt;font color=&quot;#ff3108&quot; style=&quot;font-size: 17px;&quot;&gt;&lt;i style=&quot;font-size: 17px;&quot;&gt;nif2&lt;/i&gt;&lt;/font&gt;" style="shape=partialRectangle;html=1;whiteSpace=wrap;connectable=0;strokeColor=inherit;overflow=hidden;fillColor=none;top=0;left=0;bottom=0;right=0;pointerEvents=1;fontSize=17;textShadow=1;labelBorderColor=none;labelBackgroundColor=none;" vertex="1" parent="uC9Wl7BZSaPr-iMYqyYY-84">
          <mxGeometry width="240" height="40" as="geometry">
            <mxRectangle width="240" height="40" as="alternateBounds" />
          </mxGeometry>
        </mxCell>
        <mxCell id="uC9Wl7BZSaPr-iMYqyYY-88" value="" style="shape=table;startSize=0;container=1;collapsible=0;childLayout=tableLayout;fontSize=17;" vertex="1" parent="1">
          <mxGeometry x="800" y="114" width="159.99999999999955" height="600" as="geometry" />
        </mxCell>
        <mxCell id="uC9Wl7BZSaPr-iMYqyYY-89" value="" style="shape=tableRow;horizontal=0;startSize=0;swimlaneHead=0;swimlaneBody=0;strokeColor=inherit;top=0;left=0;bottom=0;right=0;collapsible=0;dropTarget=0;fillColor=none;points=[[0,0.5],[1,0.5]];portConstraint=eastwest;" vertex="1" parent="uC9Wl7BZSaPr-iMYqyYY-88">
          <mxGeometry width="159.99999999999955" height="40" as="geometry" />
        </mxCell>
        <mxCell id="uC9Wl7BZSaPr-iMYqyYY-90" value="&lt;font size=&quot;1&quot; style=&quot;&quot;&gt;&lt;b style=&quot;font-size: 18px;&quot;&gt;cpv_stat&lt;/b&gt;&lt;/font&gt;" style="shape=partialRectangle;html=1;whiteSpace=wrap;connectable=0;strokeColor=inherit;overflow=hidden;fillColor=none;top=0;left=0;bottom=0;right=0;pointerEvents=1;" vertex="1" parent="uC9Wl7BZSaPr-iMYqyYY-89">
          <mxGeometry width="160" height="40" as="geometry">
            <mxRectangle width="160" height="40" as="alternateBounds" />
          </mxGeometry>
        </mxCell>
        <mxCell id="uC9Wl7BZSaPr-iMYqyYY-91" value="" style="shape=tableRow;horizontal=0;startSize=0;swimlaneHead=0;swimlaneBody=0;strokeColor=inherit;top=0;left=0;bottom=0;right=0;collapsible=0;dropTarget=0;fillColor=none;points=[[0,0.5],[1,0.5]];portConstraint=eastwest;" vertex="1" parent="uC9Wl7BZSaPr-iMYqyYY-88">
          <mxGeometry y="40" width="159.99999999999955" height="40" as="geometry" />
        </mxCell>
        <mxCell id="uC9Wl7BZSaPr-iMYqyYY-92" value="cpv" style="shape=partialRectangle;html=1;whiteSpace=wrap;connectable=0;strokeColor=inherit;overflow=hidden;fillColor=none;top=0;left=0;bottom=0;right=0;pointerEvents=1;fontSize=17;" vertex="1" parent="uC9Wl7BZSaPr-iMYqyYY-91">
          <mxGeometry width="160" height="40" as="geometry">
            <mxRectangle width="160" height="40" as="alternateBounds" />
          </mxGeometry>
        </mxCell>
        <mxCell id="uC9Wl7BZSaPr-iMYqyYY-93" value="" style="shape=tableRow;horizontal=0;startSize=0;swimlaneHead=0;swimlaneBody=0;strokeColor=inherit;top=0;left=0;bottom=0;right=0;collapsible=0;dropTarget=0;fillColor=none;points=[[0,0.5],[1,0.5]];portConstraint=eastwest;fontSize=17;" vertex="1" parent="uC9Wl7BZSaPr-iMYqyYY-88">
          <mxGeometry y="80" width="159.99999999999955" height="40" as="geometry" />
        </mxCell>
        <mxCell id="uC9Wl7BZSaPr-iMYqyYY-94" value="nec_t" style="shape=partialRectangle;html=1;whiteSpace=wrap;connectable=0;strokeColor=inherit;overflow=hidden;fillColor=none;top=0;left=0;bottom=0;right=0;pointerEvents=1;fontSize=19;" vertex="1" parent="uC9Wl7BZSaPr-iMYqyYY-93">
          <mxGeometry width="160" height="40" as="geometry">
            <mxRectangle width="160" height="40" as="alternateBounds" />
          </mxGeometry>
        </mxCell>
        <mxCell id="uC9Wl7BZSaPr-iMYqyYY-95" style="shape=tableRow;horizontal=0;startSize=0;swimlaneHead=0;swimlaneBody=0;strokeColor=inherit;top=0;left=0;bottom=0;right=0;collapsible=0;dropTarget=0;fillColor=none;points=[[0,0.5],[1,0.5]];portConstraint=eastwest;" vertex="1" parent="uC9Wl7BZSaPr-iMYqyYY-88">
          <mxGeometry y="120" width="159.99999999999955" height="40" as="geometry" />
        </mxCell>
        <mxCell id="uC9Wl7BZSaPr-iMYqyYY-96" value="count" style="shape=partialRectangle;html=1;whiteSpace=wrap;connectable=0;strokeColor=inherit;overflow=hidden;fillColor=none;top=0;left=0;bottom=0;right=0;pointerEvents=1;fontSize=17;" vertex="1" parent="uC9Wl7BZSaPr-iMYqyYY-95">
          <mxGeometry width="160" height="40" as="geometry">
            <mxRectangle width="160" height="40" as="alternateBounds" />
          </mxGeometry>
        </mxCell>
        <mxCell id="uC9Wl7BZSaPr-iMYqyYY-97" value="" style="shape=tableRow;horizontal=0;startSize=0;swimlaneHead=0;swimlaneBody=0;strokeColor=inherit;top=0;left=0;bottom=0;right=0;collapsible=0;dropTarget=0;fillColor=none;points=[[0,0.5],[1,0.5]];portConstraint=eastwest;" vertex="1" parent="uC9Wl7BZSaPr-iMYqyYY-88">
          <mxGeometry y="160" width="159.99999999999955" height="40" as="geometry" />
        </mxCell>
        <mxCell id="uC9Wl7BZSaPr-iMYqyYY-98" value="mean" style="shape=partialRectangle;html=1;whiteSpace=wrap;connectable=0;strokeColor=inherit;overflow=hidden;fillColor=none;top=0;left=0;bottom=0;right=0;pointerEvents=1;fontSize=17;" vertex="1" parent="uC9Wl7BZSaPr-iMYqyYY-97">
          <mxGeometry width="160" height="40" as="geometry">
            <mxRectangle width="160" height="40" as="alternateBounds" />
          </mxGeometry>
        </mxCell>
        <mxCell id="uC9Wl7BZSaPr-iMYqyYY-99" value="" style="shape=tableRow;horizontal=0;startSize=0;swimlaneHead=0;swimlaneBody=0;strokeColor=inherit;top=0;left=0;bottom=0;right=0;collapsible=0;dropTarget=0;fillColor=none;points=[[0,0.5],[1,0.5]];portConstraint=eastwest;" vertex="1" parent="uC9Wl7BZSaPr-iMYqyYY-88">
          <mxGeometry y="200" width="159.99999999999955" height="40" as="geometry" />
        </mxCell>
        <mxCell id="uC9Wl7BZSaPr-iMYqyYY-100" value="std" style="shape=partialRectangle;html=1;whiteSpace=wrap;connectable=0;strokeColor=inherit;overflow=hidden;fillColor=none;top=0;left=0;bottom=0;right=0;pointerEvents=1;fontSize=17;" vertex="1" parent="uC9Wl7BZSaPr-iMYqyYY-99">
          <mxGeometry width="160" height="40" as="geometry">
            <mxRectangle width="160" height="40" as="alternateBounds" />
          </mxGeometry>
        </mxCell>
        <mxCell id="uC9Wl7BZSaPr-iMYqyYY-101" value="" style="shape=tableRow;horizontal=0;startSize=0;swimlaneHead=0;swimlaneBody=0;strokeColor=inherit;top=0;left=0;bottom=0;right=0;collapsible=0;dropTarget=0;fillColor=none;points=[[0,0.5],[1,0.5]];portConstraint=eastwest;" vertex="1" parent="uC9Wl7BZSaPr-iMYqyYY-88">
          <mxGeometry y="240" width="159.99999999999955" height="40" as="geometry" />
        </mxCell>
        <mxCell id="uC9Wl7BZSaPr-iMYqyYY-102" value="min" style="shape=partialRectangle;html=1;whiteSpace=wrap;connectable=0;strokeColor=inherit;overflow=hidden;fillColor=none;top=0;left=0;bottom=0;right=0;pointerEvents=1;fontSize=17;" vertex="1" parent="uC9Wl7BZSaPr-iMYqyYY-101">
          <mxGeometry width="160" height="40" as="geometry">
            <mxRectangle width="160" height="40" as="alternateBounds" />
          </mxGeometry>
        </mxCell>
        <mxCell id="uC9Wl7BZSaPr-iMYqyYY-103" value="" style="shape=tableRow;horizontal=0;startSize=0;swimlaneHead=0;swimlaneBody=0;strokeColor=inherit;top=0;left=0;bottom=0;right=0;collapsible=0;dropTarget=0;fillColor=none;points=[[0,0.5],[1,0.5]];portConstraint=eastwest;" vertex="1" parent="uC9Wl7BZSaPr-iMYqyYY-88">
          <mxGeometry y="280" width="159.99999999999955" height="40" as="geometry" />
        </mxCell>
        <mxCell id="uC9Wl7BZSaPr-iMYqyYY-104" value="q1" style="shape=partialRectangle;html=1;whiteSpace=wrap;connectable=0;strokeColor=inherit;overflow=hidden;fillColor=none;top=0;left=0;bottom=0;right=0;pointerEvents=1;fontSize=17;" vertex="1" parent="uC9Wl7BZSaPr-iMYqyYY-103">
          <mxGeometry width="160" height="40" as="geometry">
            <mxRectangle width="160" height="40" as="alternateBounds" />
          </mxGeometry>
        </mxCell>
        <mxCell id="uC9Wl7BZSaPr-iMYqyYY-105" value="" style="shape=tableRow;horizontal=0;startSize=0;swimlaneHead=0;swimlaneBody=0;strokeColor=inherit;top=0;left=0;bottom=0;right=0;collapsible=0;dropTarget=0;fillColor=none;points=[[0,0.5],[1,0.5]];portConstraint=eastwest;" vertex="1" parent="uC9Wl7BZSaPr-iMYqyYY-88">
          <mxGeometry y="320" width="159.99999999999955" height="40" as="geometry" />
        </mxCell>
        <mxCell id="uC9Wl7BZSaPr-iMYqyYY-106" value="q2" style="shape=partialRectangle;html=1;whiteSpace=wrap;connectable=0;strokeColor=inherit;overflow=hidden;fillColor=none;top=0;left=0;bottom=0;right=0;pointerEvents=1;fontSize=17;" vertex="1" parent="uC9Wl7BZSaPr-iMYqyYY-105">
          <mxGeometry width="160" height="40" as="geometry">
            <mxRectangle width="160" height="40" as="alternateBounds" />
          </mxGeometry>
        </mxCell>
        <mxCell id="uC9Wl7BZSaPr-iMYqyYY-107" value="" style="shape=tableRow;horizontal=0;startSize=0;swimlaneHead=0;swimlaneBody=0;strokeColor=inherit;top=0;left=0;bottom=0;right=0;collapsible=0;dropTarget=0;fillColor=none;points=[[0,0.5],[1,0.5]];portConstraint=eastwest;" vertex="1" parent="uC9Wl7BZSaPr-iMYqyYY-88">
          <mxGeometry y="360" width="159.99999999999955" height="40" as="geometry" />
        </mxCell>
        <mxCell id="uC9Wl7BZSaPr-iMYqyYY-108" value="q3" style="shape=partialRectangle;html=1;whiteSpace=wrap;connectable=0;strokeColor=inherit;overflow=hidden;fillColor=none;top=0;left=0;bottom=0;right=0;pointerEvents=1;fontSize=17;" vertex="1" parent="uC9Wl7BZSaPr-iMYqyYY-107">
          <mxGeometry width="160" height="40" as="geometry">
            <mxRectangle width="160" height="40" as="alternateBounds" />
          </mxGeometry>
        </mxCell>
        <mxCell id="uC9Wl7BZSaPr-iMYqyYY-109" value="" style="shape=tableRow;horizontal=0;startSize=0;swimlaneHead=0;swimlaneBody=0;strokeColor=inherit;top=0;left=0;bottom=0;right=0;collapsible=0;dropTarget=0;fillColor=none;points=[[0,0.5],[1,0.5]];portConstraint=eastwest;" vertex="1" parent="uC9Wl7BZSaPr-iMYqyYY-88">
          <mxGeometry y="400" width="159.99999999999955" height="40" as="geometry" />
        </mxCell>
        <mxCell id="uC9Wl7BZSaPr-iMYqyYY-110" value="max" style="shape=partialRectangle;html=1;whiteSpace=wrap;connectable=0;strokeColor=inherit;overflow=hidden;fillColor=none;top=0;left=0;bottom=0;right=0;pointerEvents=1;fontSize=17;textShadow=0;labelBorderColor=none;labelBackgroundColor=none;" vertex="1" parent="uC9Wl7BZSaPr-iMYqyYY-109">
          <mxGeometry width="160" height="40" as="geometry">
            <mxRectangle width="160" height="40" as="alternateBounds" />
          </mxGeometry>
        </mxCell>
        <mxCell id="uC9Wl7BZSaPr-iMYqyYY-111" style="shape=tableRow;horizontal=0;startSize=0;swimlaneHead=0;swimlaneBody=0;strokeColor=inherit;top=0;left=0;bottom=0;right=0;collapsible=0;dropTarget=0;fillColor=none;points=[[0,0.5],[1,0.5]];portConstraint=eastwest;" vertex="1" parent="uC9Wl7BZSaPr-iMYqyYY-88">
          <mxGeometry y="440" width="159.99999999999955" height="40" as="geometry" />
        </mxCell>
        <mxCell id="uC9Wl7BZSaPr-iMYqyYY-112" value="iqr" style="shape=partialRectangle;html=1;whiteSpace=wrap;connectable=0;strokeColor=inherit;overflow=hidden;fillColor=none;top=0;left=0;bottom=0;right=0;pointerEvents=1;fontSize=17;textShadow=0;labelBorderColor=none;labelBackgroundColor=none;" vertex="1" parent="uC9Wl7BZSaPr-iMYqyYY-111">
          <mxGeometry width="160" height="40" as="geometry">
            <mxRectangle width="160" height="40" as="alternateBounds" />
          </mxGeometry>
        </mxCell>
        <mxCell id="uC9Wl7BZSaPr-iMYqyYY-113" style="shape=tableRow;horizontal=0;startSize=0;swimlaneHead=0;swimlaneBody=0;strokeColor=inherit;top=0;left=0;bottom=0;right=0;collapsible=0;dropTarget=0;fillColor=none;points=[[0,0.5],[1,0.5]];portConstraint=eastwest;" vertex="1" parent="uC9Wl7BZSaPr-iMYqyYY-88">
          <mxGeometry y="480" width="159.99999999999955" height="40" as="geometry" />
        </mxCell>
        <mxCell id="uC9Wl7BZSaPr-iMYqyYY-114" value="medcouple_const" style="shape=partialRectangle;html=1;whiteSpace=wrap;connectable=0;strokeColor=inherit;overflow=hidden;fillColor=none;top=0;left=0;bottom=0;right=0;pointerEvents=1;fontSize=17;textShadow=0;labelBorderColor=none;labelBackgroundColor=none;" vertex="1" parent="uC9Wl7BZSaPr-iMYqyYY-113">
          <mxGeometry width="160" height="40" as="geometry">
            <mxRectangle width="160" height="40" as="alternateBounds" />
          </mxGeometry>
        </mxCell>
        <mxCell id="uC9Wl7BZSaPr-iMYqyYY-115" style="shape=tableRow;horizontal=0;startSize=0;swimlaneHead=0;swimlaneBody=0;strokeColor=inherit;top=0;left=0;bottom=0;right=0;collapsible=0;dropTarget=0;fillColor=none;points=[[0,0.5],[1,0.5]];portConstraint=eastwest;" vertex="1" parent="uC9Wl7BZSaPr-iMYqyYY-88">
          <mxGeometry y="520" width="159.99999999999955" height="40" as="geometry" />
        </mxCell>
        <mxCell id="uC9Wl7BZSaPr-iMYqyYY-116" value="lowerfence" style="shape=partialRectangle;html=1;whiteSpace=wrap;connectable=0;strokeColor=inherit;overflow=hidden;fillColor=none;top=0;left=0;bottom=0;right=0;pointerEvents=1;fontSize=17;textShadow=0;labelBorderColor=none;labelBackgroundColor=none;" vertex="1" parent="uC9Wl7BZSaPr-iMYqyYY-115">
          <mxGeometry width="160" height="40" as="geometry">
            <mxRectangle width="160" height="40" as="alternateBounds" />
          </mxGeometry>
        </mxCell>
        <mxCell id="uC9Wl7BZSaPr-iMYqyYY-117" style="shape=tableRow;horizontal=0;startSize=0;swimlaneHead=0;swimlaneBody=0;strokeColor=inherit;top=0;left=0;bottom=0;right=0;collapsible=0;dropTarget=0;fillColor=none;points=[[0,0.5],[1,0.5]];portConstraint=eastwest;fontSize=17;" vertex="1" parent="uC9Wl7BZSaPr-iMYqyYY-88">
          <mxGeometry y="560" width="159.99999999999955" height="40" as="geometry" />
        </mxCell>
        <mxCell id="uC9Wl7BZSaPr-iMYqyYY-118" value="upperfence" style="shape=partialRectangle;html=1;whiteSpace=wrap;connectable=0;strokeColor=inherit;overflow=hidden;fillColor=none;top=0;left=0;bottom=0;right=0;pointerEvents=1;fontSize=17;textShadow=0;labelBorderColor=none;labelBackgroundColor=none;" vertex="1" parent="uC9Wl7BZSaPr-iMYqyYY-117">
          <mxGeometry width="160" height="40" as="geometry">
            <mxRectangle width="160" height="40" as="alternateBounds" />
          </mxGeometry>
        </mxCell>
        <mxCell id="uC9Wl7BZSaPr-iMYqyYY-122" value="" style="shape=table;startSize=0;container=1;collapsible=0;childLayout=tableLayout;fontSize=17;textShadow=0;" vertex="1" parent="1">
          <mxGeometry x="1000" y="114" width="159.99999999999955" height="600" as="geometry" />
        </mxCell>
        <mxCell id="uC9Wl7BZSaPr-iMYqyYY-123" value="" style="shape=tableRow;horizontal=0;startSize=0;swimlaneHead=0;swimlaneBody=0;strokeColor=inherit;top=0;left=0;bottom=0;right=0;collapsible=0;dropTarget=0;fillColor=none;points=[[0,0.5],[1,0.5]];portConstraint=eastwest;" vertex="1" parent="uC9Wl7BZSaPr-iMYqyYY-122">
          <mxGeometry width="159.99999999999955" height="40" as="geometry" />
        </mxCell>
        <mxCell id="uC9Wl7BZSaPr-iMYqyYY-124" value="&lt;font size=&quot;1&quot; style=&quot;&quot;&gt;&lt;b style=&quot;font-size: 18px;&quot;&gt;preco_stat&lt;/b&gt;&lt;/font&gt;" style="shape=partialRectangle;html=1;whiteSpace=wrap;connectable=0;strokeColor=inherit;overflow=hidden;fillColor=none;top=0;left=0;bottom=0;right=0;pointerEvents=1;" vertex="1" parent="uC9Wl7BZSaPr-iMYqyYY-123">
          <mxGeometry width="160" height="40" as="geometry">
            <mxRectangle width="160" height="40" as="alternateBounds" />
          </mxGeometry>
        </mxCell>
        <mxCell id="uC9Wl7BZSaPr-iMYqyYY-125" value="" style="shape=tableRow;horizontal=0;startSize=0;swimlaneHead=0;swimlaneBody=0;strokeColor=inherit;top=0;left=0;bottom=0;right=0;collapsible=0;dropTarget=0;fillColor=none;points=[[0,0.5],[1,0.5]];portConstraint=eastwest;" vertex="1" parent="uC9Wl7BZSaPr-iMYqyYY-122">
          <mxGeometry y="40" width="159.99999999999955" height="40" as="geometry" />
        </mxCell>
        <mxCell id="uC9Wl7BZSaPr-iMYqyYY-126" value="cpv" style="shape=partialRectangle;html=1;whiteSpace=wrap;connectable=0;strokeColor=inherit;overflow=hidden;fillColor=none;top=0;left=0;bottom=0;right=0;pointerEvents=1;fontSize=17;" vertex="1" parent="uC9Wl7BZSaPr-iMYqyYY-125">
          <mxGeometry width="160" height="40" as="geometry">
            <mxRectangle width="160" height="40" as="alternateBounds" />
          </mxGeometry>
        </mxCell>
        <mxCell id="uC9Wl7BZSaPr-iMYqyYY-127" value="" style="shape=tableRow;horizontal=0;startSize=0;swimlaneHead=0;swimlaneBody=0;strokeColor=inherit;top=0;left=0;bottom=0;right=0;collapsible=0;dropTarget=0;fillColor=none;points=[[0,0.5],[1,0.5]];portConstraint=eastwest;fontSize=17;" vertex="1" parent="uC9Wl7BZSaPr-iMYqyYY-122">
          <mxGeometry y="80" width="159.99999999999955" height="40" as="geometry" />
        </mxCell>
        <mxCell id="uC9Wl7BZSaPr-iMYqyYY-128" value="nec_t" style="shape=partialRectangle;html=1;whiteSpace=wrap;connectable=0;strokeColor=inherit;overflow=hidden;fillColor=none;top=0;left=0;bottom=0;right=0;pointerEvents=1;fontSize=19;" vertex="1" parent="uC9Wl7BZSaPr-iMYqyYY-127">
          <mxGeometry width="160" height="40" as="geometry">
            <mxRectangle width="160" height="40" as="alternateBounds" />
          </mxGeometry>
        </mxCell>
        <mxCell id="uC9Wl7BZSaPr-iMYqyYY-129" style="shape=tableRow;horizontal=0;startSize=0;swimlaneHead=0;swimlaneBody=0;strokeColor=inherit;top=0;left=0;bottom=0;right=0;collapsible=0;dropTarget=0;fillColor=none;points=[[0,0.5],[1,0.5]];portConstraint=eastwest;" vertex="1" parent="uC9Wl7BZSaPr-iMYqyYY-122">
          <mxGeometry y="120" width="159.99999999999955" height="40" as="geometry" />
        </mxCell>
        <mxCell id="uC9Wl7BZSaPr-iMYqyYY-130" value="count" style="shape=partialRectangle;html=1;whiteSpace=wrap;connectable=0;strokeColor=inherit;overflow=hidden;fillColor=none;top=0;left=0;bottom=0;right=0;pointerEvents=1;fontSize=17;" vertex="1" parent="uC9Wl7BZSaPr-iMYqyYY-129">
          <mxGeometry width="160" height="40" as="geometry">
            <mxRectangle width="160" height="40" as="alternateBounds" />
          </mxGeometry>
        </mxCell>
        <mxCell id="uC9Wl7BZSaPr-iMYqyYY-131" value="" style="shape=tableRow;horizontal=0;startSize=0;swimlaneHead=0;swimlaneBody=0;strokeColor=inherit;top=0;left=0;bottom=0;right=0;collapsible=0;dropTarget=0;fillColor=none;points=[[0,0.5],[1,0.5]];portConstraint=eastwest;" vertex="1" parent="uC9Wl7BZSaPr-iMYqyYY-122">
          <mxGeometry y="160" width="159.99999999999955" height="40" as="geometry" />
        </mxCell>
        <mxCell id="uC9Wl7BZSaPr-iMYqyYY-132" value="mean" style="shape=partialRectangle;html=1;whiteSpace=wrap;connectable=0;strokeColor=inherit;overflow=hidden;fillColor=none;top=0;left=0;bottom=0;right=0;pointerEvents=1;fontSize=17;" vertex="1" parent="uC9Wl7BZSaPr-iMYqyYY-131">
          <mxGeometry width="160" height="40" as="geometry">
            <mxRectangle width="160" height="40" as="alternateBounds" />
          </mxGeometry>
        </mxCell>
        <mxCell id="uC9Wl7BZSaPr-iMYqyYY-133" value="" style="shape=tableRow;horizontal=0;startSize=0;swimlaneHead=0;swimlaneBody=0;strokeColor=inherit;top=0;left=0;bottom=0;right=0;collapsible=0;dropTarget=0;fillColor=none;points=[[0,0.5],[1,0.5]];portConstraint=eastwest;" vertex="1" parent="uC9Wl7BZSaPr-iMYqyYY-122">
          <mxGeometry y="200" width="159.99999999999955" height="40" as="geometry" />
        </mxCell>
        <mxCell id="uC9Wl7BZSaPr-iMYqyYY-134" value="std" style="shape=partialRectangle;html=1;whiteSpace=wrap;connectable=0;strokeColor=inherit;overflow=hidden;fillColor=none;top=0;left=0;bottom=0;right=0;pointerEvents=1;fontSize=17;" vertex="1" parent="uC9Wl7BZSaPr-iMYqyYY-133">
          <mxGeometry width="160" height="40" as="geometry">
            <mxRectangle width="160" height="40" as="alternateBounds" />
          </mxGeometry>
        </mxCell>
        <mxCell id="uC9Wl7BZSaPr-iMYqyYY-135" value="" style="shape=tableRow;horizontal=0;startSize=0;swimlaneHead=0;swimlaneBody=0;strokeColor=inherit;top=0;left=0;bottom=0;right=0;collapsible=0;dropTarget=0;fillColor=none;points=[[0,0.5],[1,0.5]];portConstraint=eastwest;" vertex="1" parent="uC9Wl7BZSaPr-iMYqyYY-122">
          <mxGeometry y="240" width="159.99999999999955" height="40" as="geometry" />
        </mxCell>
        <mxCell id="uC9Wl7BZSaPr-iMYqyYY-136" value="min" style="shape=partialRectangle;html=1;whiteSpace=wrap;connectable=0;strokeColor=inherit;overflow=hidden;fillColor=none;top=0;left=0;bottom=0;right=0;pointerEvents=1;fontSize=17;" vertex="1" parent="uC9Wl7BZSaPr-iMYqyYY-135">
          <mxGeometry width="160" height="40" as="geometry">
            <mxRectangle width="160" height="40" as="alternateBounds" />
          </mxGeometry>
        </mxCell>
        <mxCell id="uC9Wl7BZSaPr-iMYqyYY-137" value="" style="shape=tableRow;horizontal=0;startSize=0;swimlaneHead=0;swimlaneBody=0;strokeColor=inherit;top=0;left=0;bottom=0;right=0;collapsible=0;dropTarget=0;fillColor=none;points=[[0,0.5],[1,0.5]];portConstraint=eastwest;" vertex="1" parent="uC9Wl7BZSaPr-iMYqyYY-122">
          <mxGeometry y="280" width="159.99999999999955" height="40" as="geometry" />
        </mxCell>
        <mxCell id="uC9Wl7BZSaPr-iMYqyYY-138" value="q1" style="shape=partialRectangle;html=1;whiteSpace=wrap;connectable=0;strokeColor=inherit;overflow=hidden;fillColor=none;top=0;left=0;bottom=0;right=0;pointerEvents=1;fontSize=17;" vertex="1" parent="uC9Wl7BZSaPr-iMYqyYY-137">
          <mxGeometry width="160" height="40" as="geometry">
            <mxRectangle width="160" height="40" as="alternateBounds" />
          </mxGeometry>
        </mxCell>
        <mxCell id="uC9Wl7BZSaPr-iMYqyYY-139" value="" style="shape=tableRow;horizontal=0;startSize=0;swimlaneHead=0;swimlaneBody=0;strokeColor=inherit;top=0;left=0;bottom=0;right=0;collapsible=0;dropTarget=0;fillColor=none;points=[[0,0.5],[1,0.5]];portConstraint=eastwest;" vertex="1" parent="uC9Wl7BZSaPr-iMYqyYY-122">
          <mxGeometry y="320" width="159.99999999999955" height="40" as="geometry" />
        </mxCell>
        <mxCell id="uC9Wl7BZSaPr-iMYqyYY-140" value="q2" style="shape=partialRectangle;html=1;whiteSpace=wrap;connectable=0;strokeColor=inherit;overflow=hidden;fillColor=none;top=0;left=0;bottom=0;right=0;pointerEvents=1;fontSize=17;" vertex="1" parent="uC9Wl7BZSaPr-iMYqyYY-139">
          <mxGeometry width="160" height="40" as="geometry">
            <mxRectangle width="160" height="40" as="alternateBounds" />
          </mxGeometry>
        </mxCell>
        <mxCell id="uC9Wl7BZSaPr-iMYqyYY-141" value="" style="shape=tableRow;horizontal=0;startSize=0;swimlaneHead=0;swimlaneBody=0;strokeColor=inherit;top=0;left=0;bottom=0;right=0;collapsible=0;dropTarget=0;fillColor=none;points=[[0,0.5],[1,0.5]];portConstraint=eastwest;" vertex="1" parent="uC9Wl7BZSaPr-iMYqyYY-122">
          <mxGeometry y="360" width="159.99999999999955" height="40" as="geometry" />
        </mxCell>
        <mxCell id="uC9Wl7BZSaPr-iMYqyYY-142" value="q3" style="shape=partialRectangle;html=1;whiteSpace=wrap;connectable=0;strokeColor=inherit;overflow=hidden;fillColor=none;top=0;left=0;bottom=0;right=0;pointerEvents=1;fontSize=17;" vertex="1" parent="uC9Wl7BZSaPr-iMYqyYY-141">
          <mxGeometry width="160" height="40" as="geometry">
            <mxRectangle width="160" height="40" as="alternateBounds" />
          </mxGeometry>
        </mxCell>
        <mxCell id="uC9Wl7BZSaPr-iMYqyYY-143" value="" style="shape=tableRow;horizontal=0;startSize=0;swimlaneHead=0;swimlaneBody=0;strokeColor=inherit;top=0;left=0;bottom=0;right=0;collapsible=0;dropTarget=0;fillColor=none;points=[[0,0.5],[1,0.5]];portConstraint=eastwest;" vertex="1" parent="uC9Wl7BZSaPr-iMYqyYY-122">
          <mxGeometry y="400" width="159.99999999999955" height="40" as="geometry" />
        </mxCell>
        <mxCell id="uC9Wl7BZSaPr-iMYqyYY-144" value="max" style="shape=partialRectangle;html=1;whiteSpace=wrap;connectable=0;strokeColor=inherit;overflow=hidden;fillColor=none;top=0;left=0;bottom=0;right=0;pointerEvents=1;fontSize=17;textShadow=0;labelBorderColor=none;labelBackgroundColor=none;" vertex="1" parent="uC9Wl7BZSaPr-iMYqyYY-143">
          <mxGeometry width="160" height="40" as="geometry">
            <mxRectangle width="160" height="40" as="alternateBounds" />
          </mxGeometry>
        </mxCell>
        <mxCell id="uC9Wl7BZSaPr-iMYqyYY-145" style="shape=tableRow;horizontal=0;startSize=0;swimlaneHead=0;swimlaneBody=0;strokeColor=inherit;top=0;left=0;bottom=0;right=0;collapsible=0;dropTarget=0;fillColor=none;points=[[0,0.5],[1,0.5]];portConstraint=eastwest;" vertex="1" parent="uC9Wl7BZSaPr-iMYqyYY-122">
          <mxGeometry y="440" width="159.99999999999955" height="40" as="geometry" />
        </mxCell>
        <mxCell id="uC9Wl7BZSaPr-iMYqyYY-146" value="iqr" style="shape=partialRectangle;html=1;whiteSpace=wrap;connectable=0;strokeColor=inherit;overflow=hidden;fillColor=none;top=0;left=0;bottom=0;right=0;pointerEvents=1;fontSize=17;textShadow=0;labelBorderColor=none;labelBackgroundColor=none;" vertex="1" parent="uC9Wl7BZSaPr-iMYqyYY-145">
          <mxGeometry width="160" height="40" as="geometry">
            <mxRectangle width="160" height="40" as="alternateBounds" />
          </mxGeometry>
        </mxCell>
        <mxCell id="uC9Wl7BZSaPr-iMYqyYY-147" style="shape=tableRow;horizontal=0;startSize=0;swimlaneHead=0;swimlaneBody=0;strokeColor=inherit;top=0;left=0;bottom=0;right=0;collapsible=0;dropTarget=0;fillColor=none;points=[[0,0.5],[1,0.5]];portConstraint=eastwest;" vertex="1" parent="uC9Wl7BZSaPr-iMYqyYY-122">
          <mxGeometry y="480" width="159.99999999999955" height="40" as="geometry" />
        </mxCell>
        <mxCell id="uC9Wl7BZSaPr-iMYqyYY-148" value="medcouple_const" style="shape=partialRectangle;html=1;whiteSpace=wrap;connectable=0;strokeColor=inherit;overflow=hidden;fillColor=none;top=0;left=0;bottom=0;right=0;pointerEvents=1;fontSize=17;textShadow=0;labelBorderColor=none;labelBackgroundColor=none;" vertex="1" parent="uC9Wl7BZSaPr-iMYqyYY-147">
          <mxGeometry width="160" height="40" as="geometry">
            <mxRectangle width="160" height="40" as="alternateBounds" />
          </mxGeometry>
        </mxCell>
        <mxCell id="uC9Wl7BZSaPr-iMYqyYY-149" style="shape=tableRow;horizontal=0;startSize=0;swimlaneHead=0;swimlaneBody=0;strokeColor=inherit;top=0;left=0;bottom=0;right=0;collapsible=0;dropTarget=0;fillColor=none;points=[[0,0.5],[1,0.5]];portConstraint=eastwest;" vertex="1" parent="uC9Wl7BZSaPr-iMYqyYY-122">
          <mxGeometry y="520" width="159.99999999999955" height="40" as="geometry" />
        </mxCell>
        <mxCell id="uC9Wl7BZSaPr-iMYqyYY-150" value="lowerfence" style="shape=partialRectangle;html=1;whiteSpace=wrap;connectable=0;strokeColor=inherit;overflow=hidden;fillColor=none;top=0;left=0;bottom=0;right=0;pointerEvents=1;fontSize=17;textShadow=0;labelBorderColor=none;labelBackgroundColor=none;" vertex="1" parent="uC9Wl7BZSaPr-iMYqyYY-149">
          <mxGeometry width="160" height="40" as="geometry">
            <mxRectangle width="160" height="40" as="alternateBounds" />
          </mxGeometry>
        </mxCell>
        <mxCell id="uC9Wl7BZSaPr-iMYqyYY-151" style="shape=tableRow;horizontal=0;startSize=0;swimlaneHead=0;swimlaneBody=0;strokeColor=inherit;top=0;left=0;bottom=0;right=0;collapsible=0;dropTarget=0;fillColor=none;points=[[0,0.5],[1,0.5]];portConstraint=eastwest;fontSize=17;" vertex="1" parent="uC9Wl7BZSaPr-iMYqyYY-122">
          <mxGeometry y="560" width="159.99999999999955" height="40" as="geometry" />
        </mxCell>
        <mxCell id="uC9Wl7BZSaPr-iMYqyYY-152" value="upperfence" style="shape=partialRectangle;html=1;whiteSpace=wrap;connectable=0;strokeColor=inherit;overflow=hidden;fillColor=none;top=0;left=0;bottom=0;right=0;pointerEvents=1;fontSize=17;textShadow=0;labelBorderColor=none;labelBackgroundColor=none;" vertex="1" parent="uC9Wl7BZSaPr-iMYqyYY-151">
          <mxGeometry width="160" height="40" as="geometry">
            <mxRectangle width="160" height="40" as="alternateBounds" />
          </mxGeometry>
        </mxCell>
        <mxCell id="uC9Wl7BZSaPr-iMYqyYY-153" style="edgeStyle=orthogonalEdgeStyle;rounded=0;orthogonalLoop=1;jettySize=auto;html=1;entryX=0;entryY=0.5;entryDx=0;entryDy=0;" edge="1" parent="1" source="uC9Wl7BZSaPr-iMYqyYY-4" target="uC9Wl7BZSaPr-iMYqyYY-26">
          <mxGeometry relative="1" as="geometry" />
        </mxCell>
        <mxCell id="uC9Wl7BZSaPr-iMYqyYY-154" style="edgeStyle=orthogonalEdgeStyle;rounded=0;orthogonalLoop=1;jettySize=auto;html=1;entryX=0;entryY=0.5;entryDx=0;entryDy=0;" edge="1" parent="1" source="uC9Wl7BZSaPr-iMYqyYY-4" target="uC9Wl7BZSaPr-iMYqyYY-58">
          <mxGeometry relative="1" as="geometry">
            <Array as="points">
              <mxPoint x="240" y="131" />
              <mxPoint x="240" y="90" />
              <mxPoint x="480" y="90" />
              <mxPoint x="480" y="174" />
            </Array>
          </mxGeometry>
        </mxCell>
        <mxCell id="uC9Wl7BZSaPr-iMYqyYY-155" style="edgeStyle=orthogonalEdgeStyle;rounded=0;orthogonalLoop=1;jettySize=auto;html=1;entryX=0;entryY=0.5;entryDx=0;entryDy=0;fontColor=#FF3108;fontSize=10;strokeColor=#d79b00;jumpStyle=arc;fillColor=#ffe6cc;" edge="1" parent="1" source="uC9Wl7BZSaPr-iMYqyYY-34" target="uC9Wl7BZSaPr-iMYqyYY-91">
          <mxGeometry relative="1" as="geometry">
            <Array as="points">
              <mxPoint x="490" y="333" />
              <mxPoint x="490" y="80" />
              <mxPoint x="770" y="80" />
              <mxPoint x="770" y="174" />
            </Array>
          </mxGeometry>
        </mxCell>
        <mxCell id="uC9Wl7BZSaPr-iMYqyYY-157" style="edgeStyle=orthogonalEdgeStyle;rounded=0;orthogonalLoop=1;jettySize=auto;html=1;entryX=0;entryY=0.5;entryDx=0;entryDy=0;strokeColor=#82b366;fillColor=#d5e8d4;" edge="1" parent="1" source="uC9Wl7BZSaPr-iMYqyYY-66" target="uC9Wl7BZSaPr-iMYqyYY-91">
          <mxGeometry relative="1" as="geometry">
            <Array as="points">
              <mxPoint x="780" y="334" />
              <mxPoint x="780" y="174" />
            </Array>
          </mxGeometry>
        </mxCell>
        <mxCell id="uC9Wl7BZSaPr-iMYqyYY-158" style="edgeStyle=orthogonalEdgeStyle;rounded=0;orthogonalLoop=1;jettySize=auto;html=1;entryX=0;entryY=0.5;entryDx=0;entryDy=0;strokeColor=#d79b00;jumpStyle=arc;fillColor=#ffe6cc;" edge="1" parent="1" source="uC9Wl7BZSaPr-iMYqyYY-34" target="uC9Wl7BZSaPr-iMYqyYY-125">
          <mxGeometry relative="1" as="geometry">
            <Array as="points">
              <mxPoint x="490" y="333" />
              <mxPoint x="490" y="80" />
              <mxPoint x="980" y="80" />
              <mxPoint x="980" y="174" />
            </Array>
          </mxGeometry>
        </mxCell>
        <mxCell id="uC9Wl7BZSaPr-iMYqyYY-159" style="edgeStyle=orthogonalEdgeStyle;rounded=0;orthogonalLoop=1;jettySize=auto;html=1;fillColor=#d5e8d4;strokeColor=#82b366;" edge="1" parent="1" source="uC9Wl7BZSaPr-iMYqyYY-66" target="uC9Wl7BZSaPr-iMYqyYY-125">
          <mxGeometry relative="1" as="geometry">
            <Array as="points">
              <mxPoint x="780" y="334" />
              <mxPoint x="780" y="100" />
              <mxPoint x="970" y="100" />
              <mxPoint x="970" y="174" />
            </Array>
          </mxGeometry>
        </mxCell>
      </root>
    </mxGraphModel>
  </diagram>
</mxfile>
